<?xml version="1.0" encoding="UTF-8"?>
<svg id="_レイヤー_1" data-name="レイヤー_1" xmlns="http://www.w3.org/2000/svg" version="1.1" viewBox="0 0 266.32 84.28">
  <!-- Generator: Adobe Illustrator 29.8.1, SVG Export Plug-In . SVG Version: 2.1.1 Build 2)  -->
  <defs>
    <style>
      .st0 {
        fill: #fff;
      }
    </style>
  </defs>
  <path class="st0" d="M16.99,17.12c-1.15,1.25-2.34,1.81-3.56,1.69-1.22-.12-2.24-.6-3.06-1.44-.82-.84-1.33-1.9-1.55-3.17-.22-1.27.16-2.46,1.12-3.56,2.16-2.59,4.46-4.39,6.91-5.4,2.45-1.01,5.23-1.51,8.35-1.51,3.41,0,6.34.62,8.78,1.87,2.45,1.25,4.61,2.76,6.48,4.54,2.06-2.83,4.38-4.79,6.95-5.87,2.57-1.08,5.22-1.62,7.96-1.62,1.58,0,3.11.3,4.57.9,1.46.6,2.76,1.48,3.89,2.63,1.13,1.15,2.02,2.56,2.66,4.21.65,1.66.95,3.52.9,5.58-.05,1.97-.46,3.84-1.22,5.62-.77,1.78-1.78,3.34-3.02,4.68-1.25,1.34-2.69,2.4-4.32,3.17-1.63.77-3.34,1.15-5.11,1.15-1.68.1-3.23-.2-4.64-.9-1.42-.7-2.7-1.48-3.85-2.34l-7.34,21.53c.86.86,1.72,1.72,2.56,2.56.84.84,1.7,1.58,2.59,2.23.89.65,1.84,1.16,2.84,1.55,1.01.38,2.14.58,3.38.58s2.56-.17,3.78-.5c1.22-.33,2.38-.91,3.46-1.73,1.08-.82,2.1-1.9,3.06-3.24.96-1.34,1.85-3.05,2.66-5.11.53-1.44,1.36-2.39,2.48-2.84,1.13-.46,2.22-.55,3.28-.29,1.06.26,1.91.84,2.56,1.73.65.89.78,1.93.4,3.13-2.16,6.48-5.27,11.28-9.32,14.4-4.06,3.12-8.53,4.68-13.43,4.68-3.41,0-6.32-.62-8.75-1.87-2.42-1.25-4.57-2.76-6.44-4.54-2.06,2.83-4.55,4.93-7.45,6.3-2.9,1.37-6.01,2.05-9.32,2.05-2.16,0-4.22-.31-6.19-.94-1.97-.62-3.7-1.51-5.18-2.66-1.49-1.15-2.66-2.56-3.53-4.21-.86-1.66-1.3-3.52-1.3-5.58,0-.53.02-1.08.07-1.66.05-.58.14-1.18.29-1.8.48-2.16,1.33-4.01,2.56-5.54,1.22-1.54,2.65-2.8,4.28-3.78,1.63-.98,3.37-1.69,5.22-2.12,1.85-.43,3.68-.62,5.51-.58,2.02.1,3.88.44,5.58,1.04,1.7.6,3.25,1.33,4.64,2.2l7.92-22.54c-1.73-1.73-3.53-3.19-5.4-4.39-1.87-1.2-4.03-1.8-6.48-1.8-1.3,0-2.54.31-3.74.94-1.2.62-2.35,1.49-3.46,2.59ZM15.91,58.81c1.68,0,3.32-.6,4.93-1.8,1.61-1.2,2.99-3.1,4.14-5.69-1.06-.96-2.14-1.73-3.24-2.3-1.1-.58-2.3-.86-3.6-.86-1.68,0-3.11.46-4.28,1.37-1.18.91-1.96,2.04-2.34,3.38-.1.24-.14.49-.14.76v.76c0,1.2.4,2.23,1.19,3.1.79.86,1.91,1.3,3.35,1.3ZM54.36,13.23c-.96,0-1.87.34-2.74,1.01-.86.67-1.63,1.73-2.3,3.17.38.53.9,1.07,1.55,1.62.65.55,1.45.88,2.41.97.62.05,1.2-.01,1.73-.18.53-.17,1-.43,1.4-.79.41-.36.7-.82.86-1.37.17-.55.2-1.19.11-1.91-.29-1.68-1.3-2.52-3.02-2.52Z"/>
  <path class="st0" d="M69.41,53.84c-.14.43-.22.82-.22,1.15,0,.67.25,1.25.76,1.73.5.48,1.16.72,1.98.72.72,0,1.49-.2,2.3-.61.82-.41,1.66-1.09,2.52-2.05.86-.96,1.74-2.22,2.63-3.78.89-1.56,1.76-3.52,2.63-5.87.48-1.34,1.3-2.26,2.45-2.74,1.15-.48,2.28-.61,3.38-.4,1.1.22,1.99.74,2.66,1.58.67.84.79,1.91.36,3.2-1.25,3.74-2.66,6.84-4.25,9.29-1.58,2.45-3.24,4.42-4.97,5.9-1.73,1.49-3.49,2.53-5.29,3.13-1.8.6-3.59.9-5.36.9-1.68,0-3.25-.24-4.72-.72-1.46-.48-2.76-1.18-3.89-2.09-1.13-.91-2.02-2.03-2.66-3.35-.65-1.32-.97-2.82-.97-4.5,0-.62.08-1.37.25-2.23.17-.86.37-1.66.61-2.38.58-1.68,1.19-3.46,1.84-5.33s1.31-3.76,1.98-5.65c.67-1.9,1.33-3.79,1.98-5.69.65-1.9,1.26-3.68,1.84-5.36.67-1.97,1.69-3.34,3.06-4.1,1.37-.77,2.68-1.01,3.92-.72,1.25.29,2.23,1.07,2.95,2.34.72,1.27.77,2.94.14,5l-7.92,22.61ZM79.13,17.12c-1.63,0-3.02-.58-4.18-1.73-1.15-1.15-1.73-2.57-1.73-4.25s.58-3.01,1.73-4.14c1.15-1.13,2.54-1.69,4.18-1.69s3.02.56,4.18,1.69c1.15,1.13,1.73,2.51,1.73,4.14s-.58,3.1-1.73,4.25c-1.15,1.15-2.54,1.73-4.18,1.73Z"/>
  <path class="st0" d="M114.48,44.7c.43-1.3,1.21-2.16,2.34-2.59,1.13-.43,2.22-.5,3.28-.22,1.06.29,1.92.88,2.59,1.76.67.89.77,1.98.29,3.28-1.15,3.27-2.64,6.1-4.46,8.5-1.82,2.4-3.88,4.39-6.16,5.98-2.28,1.58-4.72,2.76-7.31,3.53-2.59.77-5.21,1.15-7.85,1.15s-5.05-.36-7.24-1.08c-2.18-.72-4.06-1.7-5.62-2.95-1.56-1.25-2.77-2.75-3.64-4.5-.86-1.75-1.3-3.66-1.3-5.72,0-1.63.29-3.31.86-5.04l4.1-12.1c.62-1.87,1.48-3.5,2.56-4.9,1.08-1.39,2.28-2.53,3.6-3.42,1.32-.89,2.74-1.55,4.25-1.98,1.51-.43,3.04-.65,4.57-.65,1.97,0,3.76.43,5.36,1.3,1.61.86,2.9,2.04,3.89,3.53.98,1.49,1.58,3.19,1.8,5.11.22,1.92-.06,3.96-.83,6.12-.82,2.11-1.93,3.47-3.35,4.07-1.42.6-2.74.68-3.96.25-1.22-.43-2.15-1.24-2.77-2.41-.62-1.18-.58-2.48.14-3.92.67-1.25.91-2.33.72-3.24-.19-.91-.84-1.42-1.94-1.51-.62-.05-1.25.18-1.87.68-.62.5-1.1,1.21-1.44,2.12v-.07l-4.46,12.53c-.29.96-.43,1.82-.43,2.59,0,1.82.73,3.36,2.2,4.61,1.46,1.25,3.44,1.87,5.94,1.87,1.34,0,2.77-.23,4.28-.68,1.51-.46,2.99-1.19,4.43-2.2,1.44-1.01,2.81-2.31,4.1-3.92,1.3-1.61,2.4-3.56,3.31-5.87Z"/>
  <path class="st0" d="M142.27,50.96c.14.05.31.07.5.07h.5c2.16,0,4.02-.7,5.58-2.09,1.56-1.39,2.75-3.22,3.56-5.47.48-1.58,1.3-2.66,2.45-3.24,1.15-.58,2.27-.73,3.35-.47,1.08.26,1.93.94,2.56,2.02.62,1.08.65,2.48.07,4.21-.62,1.87-1.49,3.64-2.59,5.29-1.1,1.66-2.42,3.1-3.96,4.32-1.54,1.22-3.24,2.2-5.11,2.92-1.87.72-3.86,1.08-5.98,1.08-1.49,0-2.93-.19-4.32-.58-1.54,2.59-3.5,4.46-5.9,5.62-2.4,1.15-5.02,1.73-7.85,1.73-1.82,0-3.58-.28-5.26-.83-1.68-.55-3.17-1.34-4.46-2.38-1.3-1.03-2.33-2.3-3.1-3.82-.77-1.51-1.15-3.2-1.15-5.08,0-.82.08-1.66.25-2.52.17-.86.4-1.75.68-2.66l5.83-16.06c.58-1.58,1.39-3.01,2.45-4.28,1.06-1.27,2.27-2.34,3.64-3.2,1.37-.86,2.85-1.52,4.46-1.98,1.61-.46,3.25-.68,4.93-.68,1.92,0,3.76.29,5.51.86,1.75.58,3.26,1.4,4.54,2.48,1.27,1.08,2.26,2.38,2.95,3.89.69,1.51.97,3.18.83,5-.05.72-.22,1.66-.5,2.81-.29,1.15-.62,2.32-1.01,3.49-.38,1.18-.79,2.28-1.22,3.31-.43,1.03-.79,1.76-1.08,2.2-.48.72-.96,1.25-1.44,1.58.14.67.23,1.26.25,1.76.02.5.04.73.04.68ZM135.57,39.87c.24-.77.53-1.67.86-2.7.34-1.03.5-1.88.5-2.56,0-.82-.34-1.55-1.01-2.2-.67-.65-1.56-.97-2.66-.97s-2.12.32-3.06.97-1.6,1.57-1.98,2.77c-1.58,3.74-2.86,6.9-3.82,9.47-.96,2.57-1.7,4.67-2.23,6.3-.14.43-.3,1.02-.47,1.76-.17.74-.2,1.5-.11,2.27.1.77.38,1.43.86,1.98.48.55,1.32.83,2.52.83,1.06,0,2.06-.35,3.02-1.04.96-.7,1.68-1.67,2.16-2.92,0-.05.02-.1.07-.14-.67-.58-1.27-1.22-1.8-1.94-.53-.72-.82-1.7-.86-2.95,0-1.06.2-2.05.61-2.99.41-.94.96-1.73,1.66-2.38.7-.65,1.49-1.13,2.38-1.44.89-.31,1.84-.42,2.84-.32.05-.29.12-.58.22-.86.1-.29.19-.6.29-.94Z"/>
  <path class="st0" d="M188.64,45.27c.33-1.06.84-1.9,1.51-2.52.67-.62,1.38-1.04,2.12-1.26.74-.22,1.5-.24,2.27-.07.77.17,1.43.48,1.98.94.55.46.92,1.07,1.12,1.84.19.77.12,1.66-.22,2.66-1.2,3.41-2.74,6.35-4.61,8.82-1.87,2.47-4.04,4.5-6.52,6.08-2.47,1.58-5.22,2.76-8.24,3.53-3.02.77-6.29,1.15-9.79,1.15-.86,0-1.76-.02-2.7-.07-.94-.05-1.86-.12-2.77-.22-1.44,0-2.74-.22-3.89-.65s-2.21-1.01-3.17-1.73c-.43,1.2-.89,2.51-1.37,3.92-.48,1.42-.97,2.87-1.48,4.36-.5,1.49-1.01,2.94-1.51,4.36-.5,1.42-.97,2.72-1.4,3.92-.34,1.06-.89,1.9-1.66,2.52-.77.62-1.61,1.04-2.52,1.26-.91.22-1.82.22-2.74,0-.91-.22-1.69-.61-2.34-1.19-.65-.58-1.08-1.33-1.3-2.27-.22-.94-.08-2.05.4-3.35l17.93-50.69c.29-1.06.76-1.91,1.4-2.56s1.37-1.1,2.16-1.37c.79-.26,1.62-.38,2.48-.36.86.02,1.63.18,2.3.47.67.29,1.22.66,1.66,1.12.43.46.62.95.58,1.48.82-.67,1.75-1.1,2.81-1.3,1.06-.19,2.06-.29,3.02-.29,1.39,0,2.72.29,4,.86,1.27.58,2.39,1.34,3.35,2.3.96.96,1.72,2.1,2.27,3.42.55,1.32.83,2.7.83,4.14,0,1.3-.22,2.54-.65,3.74-1.01,2.78-2.03,5.63-3.06,8.53-1.03,2.9-2.05,5.72-3.06,8.46-.1.24-.18.46-.25.65-.07.19-.2.48-.4.86,2.5-.91,4.74-2.32,6.73-4.21,1.99-1.9,3.56-4.33,4.72-7.31ZM159.98,51.75c-.48,1.54-.38,2.7.29,3.49.67.79,1.58,1.19,2.74,1.19.96-.05,1.88-.37,2.77-.97.89-.6,1.52-1.45,1.91-2.56.48-1.39.92-2.64,1.33-3.74.41-1.1.79-2.18,1.15-3.24.36-1.06.73-2.14,1.12-3.24.38-1.1.79-2.38,1.22-3.82.48-1.39.5-2.56.07-3.49s-1.2-1.45-2.3-1.55c-1.01-.05-2.02.26-3.02.94-1.01.67-1.82,1.63-2.45,2.88l.14-.07-4.97,14.18Z"/>
  <path class="st0" d="M222.69,45.7c.38-1.25,1.14-2.14,2.27-2.66,1.13-.53,2.26-.71,3.38-.54,1.13.17,2.04.66,2.74,1.48.7.82.8,1.94.32,3.38-1.2,3.46-2.76,6.37-4.68,8.75-1.92,2.38-4.06,4.31-6.41,5.8-2.35,1.49-4.82,2.57-7.42,3.24-2.59.67-5.14,1.01-7.63,1.01-2.64,0-5.09-.32-7.34-.97-2.26-.65-4.21-1.58-5.87-2.81-1.66-1.22-2.96-2.7-3.92-4.43-.96-1.73-1.44-3.67-1.44-5.83,0-.82.08-1.66.25-2.52.17-.86.4-1.73.68-2.59l4.25-12.31c.62-1.78,1.46-3.35,2.52-4.72,1.06-1.37,2.26-2.52,3.6-3.46,1.34-.94,2.8-1.63,4.36-2.09,1.56-.46,3.13-.68,4.72-.68,2.02,0,3.86.31,5.54.94,1.68.62,3.11,1.48,4.28,2.56,1.18,1.08,2.09,2.35,2.74,3.82.65,1.46.97,3.06.97,4.79,0,1.2-.19,2.52-.58,3.96-.48,1.63-1.19,3.1-2.12,4.39s-2.03,2.4-3.28,3.31c-1.25.91-2.63,1.62-4.14,2.12s-3.08.76-4.72.76c-1.44,0-2.8-.19-4.07-.58-1.27-.38-2.44-.91-3.49-1.58l-.58,1.37c-.24.62-.36,1.3-.36,2.02,0,1.68.77,3.1,2.3,4.25,1.54,1.15,3.62,1.73,6.26,1.73,1.54,0,3.13-.23,4.79-.68,1.66-.46,3.24-1.16,4.75-2.12,1.51-.96,2.9-2.18,4.18-3.67,1.27-1.49,2.32-3.29,3.13-5.4ZM206.85,32.31c-.82,0-1.62.3-2.41.9-.79.6-1.4,1.45-1.84,2.56l-1.51,4.32c.67.38,1.45.65,2.34.79.89.14,1.76.14,2.63,0,.86-.14,1.64-.47,2.34-.97.7-.5,1.19-1.23,1.48-2.2.19-.53.29-1.1.29-1.73,0-1.01-.3-1.87-.9-2.59-.6-.72-1.4-1.08-2.41-1.08Z"/>
  <path class="st0" d="M240.84,54.2c1.68,0,3.1.56,4.25,1.69,1.15,1.13,1.73,2.53,1.73,4.21s-.58,3.02-1.73,4.18c-1.15,1.15-2.57,1.73-4.25,1.73s-3.02-.58-4.18-1.73-1.73-2.54-1.73-4.18.58-3.08,1.73-4.21c1.15-1.13,2.54-1.69,4.18-1.69ZM250.34,46.57c-.62,1.58-1.55,2.6-2.77,3.06-1.22.46-2.4.49-3.53.11-1.13-.38-2-1.12-2.63-2.2-.62-1.08-.62-2.34,0-3.78l13.97-38.95c.43-1.25,1.04-2.24,1.84-2.99.79-.74,1.64-1.26,2.56-1.55.91-.29,1.82-.35,2.74-.18.91.17,1.69.55,2.34,1.15.65.6,1.09,1.4,1.33,2.41.24,1.01.17,2.21-.22,3.6l-15.62,39.31Z"/>
</svg>